<svg id="visual" viewBox="0 0 960 540" opacity="30%"  width="960" height="540" xmlns="http://www.w3.org/2000/svg" xmlns:xlink="http://www.w3.org/1999/xlink" version="1.1"><path d="M0 66L120 55L240 55L360 44L480 50L600 39L720 33L840 44L960 60L960 0L840 0L720 0L600 0L480 0L360 0L240 0L120 0L0 0Z" fill="#0088cc"></path><path d="M0 98L120 77L240 77L360 77L480 71L600 66L720 66L840 82L960 87L960 58L840 42L720 31L600 37L480 48L360 42L240 53L120 53L0 64Z" fill="#0b7ebf"></path><path d="M0 152L120 120L240 131L360 136L480 141L600 98L720 136L840 131L960 141L960 85L840 80L720 64L600 64L480 69L360 75L240 75L120 75L0 96Z" fill="#1174b3"></path><path d="M0 266L120 244L240 271L360 217L480 233L600 249L720 249L840 239L960 287L960 139L840 129L720 134L600 96L480 139L360 134L240 129L120 118L0 150Z" fill="#146aa6"></path><path d="M0 298L120 287L240 320L360 255L480 287L600 298L720 276L840 293L960 336L960 285L840 237L720 247L600 247L480 231L360 215L240 269L120 242L0 264Z" fill="#16609a"></path><path d="M0 325L120 325L240 341L360 293L480 314L600 320L720 303L840 314L960 352L960 334L840 291L720 274L600 296L480 285L360 253L240 318L120 285L0 296Z" fill="#17568e"></path><path d="M0 368L120 347L240 384L360 341L480 363L600 357L720 330L840 352L960 384L960 350L840 312L720 301L600 318L480 312L360 291L240 339L120 323L0 323Z" fill="#164d82"></path><path d="M0 455L120 498L240 471L360 471L480 455L600 455L720 438L840 492L960 492L960 382L840 350L720 328L600 355L480 361L360 339L240 382L120 345L0 366Z" fill="#154476"></path><path d="M0 541L120 541L240 541L360 541L480 541L600 541L720 541L840 541L960 541L960 490L840 490L720 436L600 453L480 453L360 469L240 469L120 496L0 453Z" fill="#133b6a"></path></svg>